<svg xmlns="http://www.w3.org/2000/svg" viewBox="0 0 606.15 606.15"><title>logo-thebrownfox-white</title><g id="Original"><path d="M519.54,13.45c.82,4.49,4,7.73,6.39,11.28a357.44,357.44,0,0,1,19.7,33.75,222.42,222.42,0,0,1,14.21,32.38c2.33,6.88,4.06,14.1,5.94,21.17,3.78,14.23,2.29,28.52,2.65,42.79.38,15.12-4.4,29.09-9.86,42.93C554.34,208.47,548,218,542,227.66a141.53,141.53,0,0,1-9.86,13.58c-1.72,2.14-3.59,2.37-5.9,1.27-7.57-3.61-14.29-8.64-21.48-12.88-2.06-1.21-2-3.06-.3-4.67,9.21-8.63,14.24-20,19.22-31.11,3-6.7,4.36-14.11,5.87-21.41,2.38-11.44,1.59-22.93,1.12-34.31a97.71,97.71,0,0,0-9-37.81c-.11-.23-.27-.42-.37-.65-2.84-6.47-2.81-6.44-7.75-1.52-9.3,9.26-17.32,19.59-25.45,29.85A197.27,197.27,0,0,0,467,160.89c-5.6,11-10.9,22.45-10.66,35.35.06,3.5-1.37,3.81-4.11,2.43-6.79-3.42-13.65-6.66-20.74-9.4-11.27-4.36-22.62-8.45-34.82-9.46-3.21-.27-6.28-1.33-9.58-1.47-2.73-.12-.93-1.85-.2-2.7,4.32-5,8.79-9.9,13.25-14.77,16.09-17.6,31-36.17,46.25-54.49,15.61-18.8,30.35-38.32,45.47-57.53q11.81-15,23.59-30a18.78,18.78,0,0,0,3.36-5.36Z" style="fill:#fff"/><path d="M306.23,196.74c13.81-.18,27.61-.92,41.48.73a270.12,270.12,0,0,1,35.16,6.4c28.14,7.19,54.49,18.91,79.82,32.86a334,334,0,0,1,40.15,26c1.08.82,2.57,1.65,2.34,3.16s-2.08.93-3.15,1.42A292.06,292.06,0,0,0,475.12,281a224.5,224.5,0,0,0-30.35,21.13c-12.29,10.36-24.29,21-34.67,33.48a304.37,304.37,0,0,0-26.69,37,292.13,292.13,0,0,0-31.12,70.81c-3.75,13-6.67,26.1-9.4,39.25a262.66,262.66,0,0,0-3.82,26.11c-1.23,11.65-2,22.93-2.7,35-.33,2,.32,9-.47,13.43-.15.85-.29,1.41-1.19,1.54-4.15-1.86-8.73-2.19-13-2.12-10.41.15-19.65.1-31.25,1.11a5,5,0,0,1-1.47-.15c-10.93.14-19-1-28.55-.71-1.92-.76-1.89-2.45-1.88-4.08.11-17.13-1.39-34.16-3.31-51.14-.83-7.4-2.49-14.76-3.68-22.11a305,305,0,0,0-8-34.12c-2.14-7.56-4.84-14.92-7.32-22.36a175.35,175.35,0,0,0-8.5-20.25c-8.56-17.87-18.22-35-30.07-51.05a282,282,0,0,0-36.41-40.13,253,253,0,0,0-50.54-35.87,142,142,0,0,0-18.88-8.87c-3.19-1.16-.89-2.93.23-3.78,4.47-3.39,9.08-6.6,13.71-9.76,9.36-6.4,19.22-12,29-17.7A309.94,309.94,0,0,1,172,217.52c13.94-5.82,28.14-11,42.83-14.38A308.14,308.14,0,0,1,246,197.61c12.63-1.57,25.16-.75,37.72-1.16" style="fill:#fff"/><path d="M38,146c-.82-26.12,6.17-48.4,15.35-70.3C61.92,55.21,73.6,36.55,85.27,17.85c2.57-4.12,2.83-4.12,6-.13,4,5.05,7.93,10.21,11.86,15.34q26.09,34,53,67.4c11.06,13.68,22.41,27.11,33.73,40.57q14.6,17.34,29.85,34.07c.69.75,1.5,1.43,1,2.58s-1.46.73-2.28.8c-15.88,1.4-31,5.77-45.63,11.89-6.44,2.68-12.71,5.71-19,8.78-2.08,1-3.4,1-3.4-1.73,0-16.29-6.64-30.48-14.37-44.22-11.83-21-27.27-39.32-43.42-57.07-3.62-4-4.67-3.85-6.66,1.06a148.67,148.67,0,0,0-9.36,32.88c-1.86,11.74-1.54,23.43-1,35.08.48,9.65,3.62,19,7.07,28.1A107.89,107.89,0,0,0,102,225.54c1.43,1.66,1.91,3.17-.29,4.66C94.57,235,87,239.07,79.57,243.34c-1.41.81-2.66.19-3.67-.93a51.45,51.45,0,0,1-3.45-3.94c-10.4-14.06-19.85-28.77-25.85-45.2C40.83,177.45,36.5,161.13,38,146Z" style="fill:#fff"/><path d="M397.77,460.68c-4.61,0-7.86-.08-11.1,0-1.89.06-2.48-.67-2.12-2.43,4.21-20.76,12.3-39.48,29.11-53.25,12.43-10.18,26.71-15.64,43-15.12,1.95.06,2.56.65,2.58,2.59.22,25.73-9,46.72-31.52,60.33C418.33,458.52,407.74,461.61,397.77,460.68Z" style="fill:#fff"/><path d="M201.47,460.68c-19.46-.05-35.63-7.24-48.12-22.3-7.32-8.82-11.16-19.28-13.92-30.21-1.32-5.22-1.56-10.58-1.92-15.93-.12-1.88.69-2.28,2.4-2.33A63.8,63.8,0,0,1,186,406.63c12.57,11.19,20.31,25.28,24.58,41.42.86,3.25,1.88,6.46,2.71,9.71.48,1.92,0,3.08-2.41,3C207.72,460.56,204.6,460.68,201.47,460.68Z" style="fill:#fff"/><path d="M296.53,592.7s39.51-33,39.51-35a3.18,3.18,0,0,0-2-1s-71.93-1-74,0c-.18.09-1.41.43-1,1C263.17,563.61,296.53,592.7,296.53,592.7Z" style="fill:#fff"/></g><g id="Black_newly_drawn_copy" data-name="Black newly drawn copy"><g id="Right_ear_copy_2" data-name="Right ear copy 2"><path d="M381.13,178.2s52-62,133-165c0,0,105,131,11,232l-27-16s55-59,15-136c0,0-57,50-61,107C452.13,200.2,410.63,180.7,381.13,178.2Z" style="fill:#fff"/></g><g id="Nose_copy_2" data-name="Nose copy 2"><polyline points="252.74 556.7 330.74 556.7 291.74 593.7 252.74 556.7" style="fill:#fff"/></g><g id="Left_eye_copy_2" data-name="Left eye copy 2"><path d="M132.24,390.2s63-8,75,70C207.24,460.2,138.24,469.2,132.24,390.2Z" style="fill:#fff"/></g><g id="Right_eye_copy_2" data-name="Right eye copy 2"><path d="M454.24,390.2s-63-8-75,70C379.24,460.2,448.24,469.2,454.24,390.2Z" style="fill:#fff"/></g><g id="Head_copy_2" data-name="Head copy 2"><path d="M252.74,556.7h78s-12-214.82,169-293.49c0,0-187-165.4-415,0C84.74,263.21,253.74,323.73,252.74,556.7Z" style="fill:#fff"/></g><g id="Left_ear_copy_2" data-name="Left ear copy 2"><path d="M216.24,178.2s-52-62-133-165c0,0-105,131-11,232l27-16s-55-59-15-136c0,0,57,50,61,107C145.24,200.2,186.74,180.7,216.24,178.2Z" style="fill:#fff"/></g></g></svg>