<svg xmlns="http://www.w3.org/2000/svg" viewBox="0 0 606.15 606.15"><title>logo-thebrownfox-black</title><g id="Black_newly_drawn" data-name="Black newly drawn"><g id="Nose_copy" data-name="Nose copy"><polyline points="258.89 556.7 336.89 556.7 297.89 593.7 258.89 556.7"/></g><g id="Left_eye_copy" data-name="Left eye copy"><path d="M138.39,390.2s63-8,75,70C213.39,460.2,144.39,469.2,138.39,390.2Z"/></g><g id="Right_eye_copy" data-name="Right eye copy"><path d="M460.39,390.2s-63-8-75,70C385.39,460.2,454.39,469.2,460.39,390.2Z"/></g><g id="Head_copy" data-name="Head copy"><path d="M258.89,556.7h78s-12-214.82,169-293.49c0,0-187-165.4-415,0C90.89,263.21,259.89,323.73,258.89,556.7Z"/></g><g id="Left_ear_copy" data-name="Left ear copy"><path d="M222.39,178.2s-52-62-133-165c0,0-105,131-11,232l27-16s-55-59-15-136c0,0,57,50,61,107C151.39,200.2,192.89,180.7,222.39,178.2Z"/></g><g id="Right_ear_copy" data-name="Right ear copy"><path d="M387.28,178.2s52-62,133-165c0,0,105,131,11,232l-27-16s55-59,15-136c0,0-57,50-61,107C458.28,200.2,416.78,180.7,387.28,178.2Z"/></g></g></svg>