<svg id="Layer_1" data-name="Layer 1" xmlns="http://www.w3.org/2000/svg" viewBox="0 0 226.77 226.77"><defs><style>.cls-1{fill:#082342;}.cls-2{fill:#9a8157;}.cls-3{fill:#ba0e31;}</style></defs><title>dragons-logo-original</title><path class="cls-1" d="M113.39,226.77A113.39,113.39,0,1,0,0,113.39,113.38,113.38,0,0,0,113.39,226.77Z" transform="translate(0 0)"/><path class="cls-2" d="M110.91,6.59A89.18,89.18,0,0,1,123.77,7a105,105,0,0,1,32,8.16c24.9,10.89,42.73,28.48,54.52,52.47a100.21,100.21,0,0,1,7.07,19.66,106.3,106.3,0,0,1,2.19,11.2,111.73,111.73,0,0,1,.58,25.2,106.65,106.65,0,0,1-23.27,57c-2,2.46-4,4.91-6.24,7.12a109.61,109.61,0,0,1-31.12,22.39,105.75,105.75,0,0,1-30.87,9.26,112.37,112.37,0,0,1-25.2.57,106.43,106.43,0,0,1-32-8.17,103.73,103.73,0,0,1-25-15.1,110.91,110.91,0,0,1-19.54-20.59,104.72,104.72,0,0,1-17-36.44,110.7,110.7,0,0,1-3.2-23.53,106.26,106.26,0,0,1,8.6-44.82A103.66,103.66,0,0,1,30.31,46.32,106.93,106.93,0,0,1,98.58,7.6c3.88-.57,7.89-.8,12.33-1ZM99.5,13.09a100.64,100.64,0,0,0-29.29,8.78A102.94,102.94,0,0,0,40.67,43a83.51,83.51,0,0,0-5.93,6.71A102.89,102.89,0,0,0,20.43,73.49a99.17,99.17,0,0,0-8.21,42.41,100.73,100.73,0,0,0,9.7,41,102.24,102.24,0,0,0,9.4,15.94A97.69,97.69,0,0,0,49.8,192.38a103.59,103.59,0,0,0,23.75,14.31,98.79,98.79,0,0,0,30.25,7.77,105.14,105.14,0,0,0,23.84-.52,101.48,101.48,0,0,0,86.88-90.62A106.29,106.29,0,0,0,214,99.48a97.46,97.46,0,0,0-2.06-10.62,98.62,98.62,0,0,0-16.07-34.64A101.52,101.52,0,0,0,123.38,12.6a88.31,88.31,0,0,0-12.16-.44c-4.15.2-8,.41-11.72.93Z" transform="translate(0 0)"/><path class="cls-2" d="M112.45,15.85c2.22.15,4.68.31,7,.44s4.37.47,5.27,2.11c1.22,2.23.37,6.1-2.07,6.5,1.21.52,1.8,1.59,1.8,3.33a15.12,15.12,0,0,0,0,3.43c.15.51.6.69.44,1.27-1.23-.09-2.48-.15-3.73-.22-.77-2,.82-5.45-1.18-6.32-1.23-.54-3.11-.12-4.75-.4-.21,2-.28,4.2-.39,6.32-1.16,0-2.25-.12-3.38-.17.27-5.43.63-10.76.92-16.16a.12.12,0,0,1,.09-.13Zm3.11,3.21c0,1.38-.16,2.7-.21,4.08,2-.17,5.09.94,6.1-.48a2.41,2.41,0,0,0-.57-3.25c-1.13-.59-3.95-.24-5.27-.49,0,0,0,.07,0,.14Z" transform="translate(0 0)"/><path class="cls-2" d="M94.1,34.25c-.81-5.42-1.72-10.72-2.55-16.12,2.62-.23,4.91-1,7.46-1.14,4.16-.28,6.08,2.09,7,5.14,1.09,3.53.67,7.42-1.54,9.39-2.46,2.21-6.61,1.85-10.4,2.73ZM102,29.46c2.25-1.67,1.33-7.26-.49-8.82-1.56-1.35-4.21-.49-6.14-.13.62,3.36,1,6.91,1.71,10.22,2-.48,3.51-.23,4.92-1.27Z" transform="translate(0 0)"/><path class="cls-2" d="M138.66,19.8c1.21.4,2.48.74,3.69,1.14.3,5.76.58,11.53.92,17.26-1.2-.28-2.29-.67-3.43-1,0-1.14-.07-2.25-.13-3.34-2-.65-4-1.19-6-1.84-.74.84-1.31,1.85-2,2.72-1.11-.32-2.23-.63-3.29-1-.1-.19.14-.3.22-.4,2.41-3.25,4.91-6.61,7.33-9.92.89-1.22,1.73-2.47,2.68-3.6Zm-3.3,9.75c1.46.4,2.84.88,4.31,1.27,0-2.43-.07-4.88-.18-7.24-1.36,2-2.76,4-4.13,6Z" transform="translate(0 0)"/><path class="cls-2" d="M163.33,36.09c-1-.54-2-1.1-2.94-1.67a3.15,3.15,0,0,0-.57-2.81,4.74,4.74,0,0,0-4-1.75c-2.47.23-4.81,3.6-5,6.27A4.22,4.22,0,0,0,151,38a4.45,4.45,0,0,0,4.09,2.81,3.68,3.68,0,0,0,3-1.58C157,38.64,156,38,154.9,37.45c.46-.84.94-1.67,1.41-2.5,1.93,1.08,3.82,2.2,5.79,3.25-1.41,2.61-2.9,5.15-4.35,7.72a18.12,18.12,0,0,1-1.93-1.09c.2-.64.42-1.25.62-1.89a6.38,6.38,0,0,1-3.12.48,7.4,7.4,0,0,1-4.65-3,7.21,7.21,0,0,1-1.19-6c.76-3.6,3.74-7.41,7.73-7.68a9,9,0,0,1,6.63,2.77c1.36,1.43,2.62,4,1.49,6.58Z" transform="translate(0 0)"/><path class="cls-2" d="M69.73,32.1c-1,.56-1.85,1.19-2.76,1.8a3.57,3.57,0,0,0-2.33-1.15,4.54,4.54,0,0,0-3.34,1.63,4.1,4.1,0,0,0-1,3.07,8.3,8.3,0,0,0,3.82,5.66,4.44,4.44,0,0,0,4.7-.74,3.6,3.6,0,0,0,.92-4.13,27.21,27.21,0,0,1,2.86-1.89,6.55,6.55,0,0,1,.83,3.56A6.8,6.8,0,0,1,70.35,45a7.77,7.77,0,0,1-6.15,1.71,8.36,8.36,0,0,1-4.79-3.34,9.66,9.66,0,0,1-2.5-6.76,6.69,6.69,0,0,1,2.64-4.69,8.45,8.45,0,0,1,4.91-2.37,5.49,5.49,0,0,1,5.27,2.59Z" transform="translate(0 0)"/><path class="cls-2" d="M171.89,39a8.19,8.19,0,0,1,7.86,4.79,7.23,7.23,0,0,1,.48,5.22,10.5,10.5,0,0,1-6.06,6.54,7.44,7.44,0,0,1-5.31-.13,8.82,8.82,0,0,1-3.55-2.76,7.06,7.06,0,0,1-1.76-4.53,8.62,8.62,0,0,1,2.63-6,11.92,11.92,0,0,1,2.37-2,7.38,7.38,0,0,1,3.34-1.1Zm-1.18,3.73a8.2,8.2,0,0,0-3.52,3.78,4.28,4.28,0,0,0-.17,3.07,4.67,4.67,0,0,0,5.31,3.08,7.83,7.83,0,0,0,4.57-4.18,4.67,4.67,0,0,0-.49-4.34,4.5,4.5,0,0,0-4.17-1.89,4.31,4.31,0,0,0-1.53.48Z" transform="translate(0 0)"/><path class="cls-2" d="M53.93,58.35c-1.83-1.54-3.71-3-5.53-4.57-1.46,1.67-2.83,3.44-4.26,5.14,1.8,1.59,3.7,3.09,5.57,4.61-.66.92-1.44,1.72-2.1,2.63-4.24-3.4-8.4-6.88-12.6-10.31.47-.67,1-1.26,1.58-2a6.33,6.33,0,0,1,.52-.66c.17,0,1,.83,1.19,1L41.77,57c1.43-1.7,2.8-3.46,4.25-5.13-1.48-1.35-3.11-2.54-4.6-3.87.64-.9,1.41-1.68,2.06-2.59,3.59,2.85,8.07,6.55,11.85,9.7a7.85,7.85,0,0,1,.79.62c0,.11-.44.5-.57.66a16.83,16.83,0,0,1-1.62,1.93Z" transform="translate(0 0)"/><path class="cls-2" d="M193.84,61.2c.6,1,1.26,1.88,1.85,2.86-4.55,2.94-9,6-13.53,9-.73-.88-1.28-1.93-2-2.85,1.89-3.86,3.73-7.78,5.62-11.64-3.07,1.9-6.17,4.14-9.31,6.11-.58-.95-1.2-1.88-1.84-2.77q6.75-4.57,13.61-9c.59,1,1.28,1.91,1.88,2.89-1.82,3.89-3.71,7.7-5.57,11.55,0,0-.05,0-.05.09,3.15-2,6.17-4.14,9.31-6.15Z" transform="translate(0 0)"/><path class="cls-2" d="M26.66,69.72c1.34,2.76,2.61,5.59,3.87,8.43,3.87-1.06,7.72-2.15,11.59-3.21-.47,1.3-1,2.58-1.45,3.87-3,.75-5.87,1.53-8.78,2.32.2.67.65,1.46.92,2.2,1.76.7,3.55,1.36,5.36,2-.32,1.12-.78,2.09-1.14,3.16-5.16-1.85-10.17-3.82-15.28-5.71.41-1,.8-2.09,1.18-3.16q3.12,1.14,6.19,2.33c-.93-2.24-2.28-4.81-3.42-7.25a5.15,5.15,0,0,1-.48-1,8.2,8.2,0,0,1,.7-1.93c.28-.76.54-1.39.74-2Z" transform="translate(0 0)"/><path class="cls-2" d="M199.15,84.47c-.36-1-.69-2-1.09-2.9.39-.38.75-.47,1.05-.88,1.12-1.5-.07-4.58-1.41-5.18A1.6,1.6,0,0,0,195.47,77a15.73,15.73,0,0,0,.26,3.34c.23,2.07.47,4.17-.53,5.58a5,5,0,0,1-4.47,1.75,4.8,4.8,0,0,1-3.25-1.84,10,10,0,0,1-2.16-6.19,5,5,0,0,1,3.47-4.83c.36,1,.74,2.07,1.14,3.07a2.94,2.94,0,0,0-1.58,2.9c.13,1.59,1.25,4.12,3,3.64,1.43-.4,1.48-2.82,1.22-4.43a17.38,17.38,0,0,1-.35-3.78c.16-2.38,2.3-4.16,5.18-3.9a4.18,4.18,0,0,1,1.94.74c2.09,1.55,4.21,6.52,2.45,9.44a5,5,0,0,1-2.59,2Z" transform="translate(0 0)"/><path class="cls-2" d="M197.53,118.23c-.13,1.06-.24,2.13-.4,3.16a2.46,2.46,0,0,0-2.32,1.19c-.95,1.6-.9,5.21,1.31,4.87,1.29-.2,1.87-2.1,2.33-3.38.86-2.39,1.76-5.61,5-5.62s5,2.11,5.23,5.09c.29,4.68-1.76,8.41-6.37,8.12.12-1.12.28-2.2.4-3.33a2.77,2.77,0,0,0,2.37-1.1c1-1.35,1.33-5.06-.66-5.31-1.56-.2-2.49,2-2.9,3-.95,2.48-1.53,5.61-4.83,5.79a4.83,4.83,0,0,1-4.21-1.89c-1.4-1.92-1.09-6,.13-8.16a4.84,4.84,0,0,1,5-2.46Z" transform="translate(0 0)"/><path class="cls-2" d="M34.13,118.45c.24.15.15.53.17.79.06.77.16,1.76.22,2.59-5.43.41-10.82.86-16.24,1.27-.1-1.11-.2-2.23-.26-3.38q8.07-.61,16.11-1.27Z" transform="translate(0 0)"/><path class="cls-2" d="M35.09,124.47c.25.13.26.49.31.74.18.81.35,1.75.53,2.59a8.94,8.94,0,0,1-1.1,1.14c-2.75,2.5-5.61,5.12-8.34,7.69,3.64-.75,7.22-1.56,10.84-2.33.26,1.07.51,2.16.7,3.29-5.25,1.19-10.61,2.26-15.84,3.47-.35-1-.49-2.27-.79-3.34,3.08-3,6.34-5.86,9.43-8.87-3.63.76-7.21,1.57-10.84,2.33-.22-1.11-.47-2.19-.7-3.29,5.25-1.15,10.54-2.28,15.8-3.42Z" transform="translate(0 0)"/><path class="cls-2" d="M193.53,132c-.8,2.7-1.64,5.38-2.5,8,1,.39,2.09.69,3.16,1,.84-2.38,1.54-4.9,2.33-7.33.94.24,1.82.55,2.72.83-.76,2.45-1.51,4.9-2.28,7.33,1.27.49,2.65.86,4,1.28,1-2.75,1.76-5.65,2.68-8.43.94.3,1.87.61,2.86.88-1.16,3.93-2.42,7.76-3.6,11.67-5.24-1.56-10.4-3.21-15.59-4.82,1.21-3.74,2.33-7.57,3.56-11.29l2.67.84Z" transform="translate(0 0)"/><path class="cls-2" d="M191.91,146c-.44,1.06-1,2-1.54,3a3.35,3.35,0,0,0-3.33.62c-1.09,1-2,3.53-1,5.31,1.24,2.23,6,4.87,8.69,2.59,1.11-1,2.24-3.13,1.1-5-.27-.45-.57-.63-.92-1.14.53-.93,1-1.9,1.53-2.85a5.75,5.75,0,0,1,3,5.79,8.35,8.35,0,0,1-2.15,5,6.34,6.34,0,0,1-5.75,2.55,11.41,11.41,0,0,1-6-2.46,7.29,7.29,0,0,1-3.2-5.27,9.3,9.3,0,0,1,1.84-5.79,6.16,6.16,0,0,1,4.88-2.9,6.34,6.34,0,0,1,2.85.66Z" transform="translate(0 0)"/><path class="cls-2" d="M43.79,150.41c-1.73,1-3.44,2-5.18,3,1.08,2,2.22,3.86,3.33,5.79,1.77-.95,3.47-2,5.18-3a32.69,32.69,0,0,1,1.71,2.94c-4.71,2.69-9.34,5.46-14.09,8.12-.56-.94-1.1-1.92-1.67-2.85,2-1.28,4.15-2.45,6.24-3.65-1.05-2-2.24-3.88-3.34-5.84-2.06,1.24-4.19,2.4-6.23,3.65-.62-.94-1.17-1.94-1.71-3,4.67-2.72,9.39-5.41,14-8.16.6.95,1.17,1.94,1.72,2.94Z" transform="translate(0 0)"/><path class="cls-2" d="M192.31,167.53c-.71.94-1.44,1.84-2.2,2.72l-12.73-1.84c2.15,1.89,5.07,4.07,7.55,6.1a11.17,11.17,0,0,1,1,.88c0,.12-.44.55-.52.66-.56.69-1.07,1.32-1.58,2-4.26-3.36-8.43-6.82-12.69-10.18.71-1,1.45-1.89,2.24-2.77,4.22.64,8.48,1.23,12.69,1.89-2.71-2.31-5.74-4.68-8.61-7,.7-.89,1.39-1.8,2.15-2.63,4.22,3.38,8.42,6.8,12.65,10.18Z" transform="translate(0 0)"/><path class="cls-2" d="M48.35,162.66a7.35,7.35,0,0,1,6.1,2.41A7.65,7.65,0,0,1,57,171a8.51,8.51,0,0,1-2.81,5.66,9.64,9.64,0,0,1-5.62,2.86,7.25,7.25,0,0,1-6.06-2.37,7.58,7.58,0,0,1-2.59-5.89,8.48,8.48,0,0,1,2.77-5.7,11.11,11.11,0,0,1,2.41-1.85,8.41,8.41,0,0,1,3.25-1.05Zm-.92,3.64a7.8,7.8,0,0,0-2.28,1.63,6.52,6.52,0,0,0-1.67,2.28,4.57,4.57,0,0,0,1.8,5.36c3.13,2.16,7.07-1.14,8.12-3.43,1.2-2.61-.85-5.24-2.5-6a4.22,4.22,0,0,0-1.89-.26,4.87,4.87,0,0,0-1.58.39Z" transform="translate(0 0)"/><path class="cls-2" d="M180.8,181.84c-.86.72-1.59,1.57-2.5,2.24-3.64-4-7.34-7.91-11-11.85.72-.86,1.62-1.54,2.42-2.33,3.74,3.94,7.46,7.9,11.1,11.94Z" transform="translate(0 0)"/><path class="cls-2" d="M165.66,173.59c1.63,5.5,3.18,11.07,4.78,16.6-.86.61-1.75,1.2-2.59,1.84-4.7-3.34-9.36-6.71-14-10.05,1-.75,2.07-1.45,3.08-2.2,3.28,2.62,6.49,5.3,9.79,7.9-1.32-4-2.7-7.9-4-11.85.9-.85,2.05-1.46,3-2.24Z" transform="translate(0 0)"/><path class="cls-2" d="M68.9,185.53c-.89-.67-1.8-1.33-2.68-2a3.33,3.33,0,0,0,.18-2.85,4.71,4.71,0,0,0-4.48-2.59,5.23,5.23,0,0,0-2.77,1.45A7.68,7.68,0,0,0,56.61,184a3.34,3.34,0,0,0,.3,2c.76,1.58,3,3.27,5.18,2.24a5.3,5.3,0,0,0,1-.7c.93.62,1.77,1.33,2.68,2a5.57,5.57,0,0,1-5.05,2.28,7.87,7.87,0,0,1-5-2.28,6.84,6.84,0,0,1-2.55-5.71,10.48,10.48,0,0,1,2.68-5.79c1.47-1.73,3.36-3.46,6.5-3.25a8.77,8.77,0,0,1,5,2.28A6.54,6.54,0,0,1,70,181.71a5.93,5.93,0,0,1-1.14,3.82Z" transform="translate(0 0)"/><path class="cls-2" d="M91.07,194.49c-1-.21-2-.73-3-1a2.62,2.62,0,0,0-.79-2.68,4.92,4.92,0,0,0-3.47-1.1A1.62,1.62,0,0,0,82.33,191c-.17,1.53,1.83,2.51,2.86,3.16,1.5.95,3.47,2,4.17,3.69.86,2-.48,4.46-1.67,5.44-2.15,1.76-6,.75-8.21-.57s-3.61-3.34-2.59-6.54c1,.39,2.11.75,3.16,1.14a2.79,2.79,0,0,0,1,3,5,5,0,0,0,3.65,1A1.62,1.62,0,0,0,86,200.06c.14-1.42-1.64-2.75-2.68-3.38-1.53-.92-3.49-1.87-4.13-3.46a4.59,4.59,0,0,1,4.88-6.28,9.23,9.23,0,0,1,6,2.59,5.08,5.08,0,0,1,1,5Z" transform="translate(0 0)"/><path class="cls-2" d="M140.63,187.46a7,7,0,0,1,6.59,2.9,11.26,11.26,0,0,1,2.15,6,7.32,7.32,0,0,1-2.28,5.88,9.14,9.14,0,0,1-5.89,2.24,7,7,0,0,1-5.62-2.55,10.33,10.33,0,0,1-2.1-9.35,6.81,6.81,0,0,1,3.9-4.26,9.6,9.6,0,0,1,3.25-.88Zm-3.2,4.57c-2,2.21-.55,6.83,1.23,8.39a4.79,4.79,0,0,0,6.36-.53c1.91-2.13.71-6.28-.83-8a4,4,0,0,0-3.51-1.36,5.22,5.22,0,0,0-3.25,1.49Z" transform="translate(0 0)"/><path class="cls-2" d="M95.37,190.8c1.06.25,2.14.49,3.25.7-1.16,5.31-2.3,10.64-3.47,15.94-1.11-.23-2.18-.48-3.29-.7,1.12-5.29,2.28-10.54,3.42-15.81a.13.13,0,0,1,.09-.13Z" transform="translate(0 0)"/><path class="cls-2" d="M122.37,208.32c-1.1.14-2.2.28-3.34.39-.63-5.39-1.31-10.74-1.93-16.15.8-.14,1.66-.2,2.59-.31a4,4,0,0,1,.79-.13c.25.06.8.9,1.06,1.23,2.27,3,4.68,6.24,6.89,9-.43-3.7-.9-7.36-1.32-11.06,1.13-.11,2.24-.26,3.34-.4.65,5.39,1.32,10.76,1.93,16.2-.53.08-1.09.1-1.71.18a6.11,6.11,0,0,1-1.63.22c-.2-.05-.77-.87-1-1.23-2.2-2.85-4.72-6.28-6.81-8.87a.57.57,0,0,1-.08-.13c.34,3.57.9,7.32,1.27,11Z" transform="translate(0 0)"/><path class="cls-2" d="M115.39,198c-1.1-.08-2.2-.17-3.34-.22-.31-2.94-4.89-3.54-6.85-1.58-1.79,1.79-2.07,6.47-.39,8.52,1.4,1.71,4.89,2,6.41.13a4,4,0,0,0,.79-1.71c-1.1-.2-2.44-.17-3.6-.31,0-1,.13-1.86.17-2.81,2.27.08,4.38.32,6.63.4-.11,2.85-.38,5.94-.57,8.87-.74,0-1.44-.11-2.19-.14-.11-.63-.19-1.3-.27-2-.33.16-.51.51-.79.75a5.47,5.47,0,0,1-3.51,1.27c-5.93,0-9.06-5.6-7.29-11.55a7.19,7.19,0,0,1,6.85-5.44c4.24-.31,7.65,1.91,8,5.79Z" transform="translate(0 0)"/><path class="cls-2" d="M110.69,37.67a69,69,0,0,1,16.9,1.49A72,72,0,0,1,153.5,50a73.38,73.38,0,0,1,32.62,59.14,71.17,71.17,0,0,1-5.84,30.77A74.66,74.66,0,0,1,165.66,162a71.83,71.83,0,0,1-21.34,15.36,71.09,71.09,0,0,1-13.48,4.88,73.23,73.23,0,0,1-24.93,1.93c-2.79-.3-5.48-.62-8-1.14a72.46,72.46,0,0,1-36-19,71,71,0,0,1-15.41-21.3,73.78,73.78,0,0,1-7.11-29.59A73.63,73.63,0,0,1,69.6,51.63a71.75,71.75,0,0,1,32.62-13.26c2.67-.39,5.47-.56,8.47-.7Z" transform="translate(0 0)"/><path class="cls-1" d="M112.32,179.43a68,68,0,1,0-68-68,68,68,0,0,0,68,68Z" transform="translate(0 0)"/><path class="cls-3" d="M134.31,157.71c-1.13-.69-2.06-1.36-2.92-2a14.07,14.07,0,0,1-3-3.24,5.84,5.84,0,0,1-5.37,1.89h0l-.34-.07a15.27,15.27,0,0,1-4.53,11.53,14.66,14.66,0,0,1-1.18,1.06c-.28.49-.82,1.1-.34,1.51a9.36,9.36,0,0,0,3-.78L136.72,159c-.59-.32-.69-.36-1.18-.64-.32-.17-.78-.42-1.23-.69Z" transform="translate(0 0)"/><path class="cls-3" d="M86.82,90.26a1.55,1.55,0,0,0,2-.49,8.56,8.56,0,0,0,2.47-3.07A3.47,3.47,0,0,0,92.55,90a2.93,2.93,0,0,0,1.71.61A21.17,21.17,0,0,0,98,87.22c3-3.92,3.57-7.93,2-12.11a19.42,19.42,0,0,0-4.07-6.74,27.38,27.38,0,0,1,.72,11.14A8.4,8.4,0,0,1,93,85a8.07,8.07,0,0,1-1.31.75,8.68,8.68,0,0,0,.35-1.33h0a8.77,8.77,0,0,0-1.83-7.16,9.26,9.26,0,0,0-.8-.86,13.54,13.54,0,0,1-.1,5.15,11.55,11.55,0,0,1-.42,1.52,4.35,4.35,0,0,1-1.43,2.13,4.47,4.47,0,0,1-3.39,1.06,8.22,8.22,0,0,0,2.72,4Zm4.9-4.52a4.84,4.84,0,0,1-.18.49h0l-.21.47a5.69,5.69,0,0,1,.08-.82l.31-.14Z" transform="translate(0 0)"/><path class="cls-3" d="M71.11,142.21a7,7,0,0,0-1.81-1.43c-.35-.43-.12-1,.53-1.37l.17-.08a.63.63,0,0,1,1.06-.51,7.68,7.68,0,0,1,1,1.59c.08.18.16.37.23.56a25.28,25.28,0,0,0-.16,5.07c.13.38.12,1.18.73,1.16.46-.21.58-.73.73-1.11a21.24,21.24,0,0,0,.74-2.66c.13-.62.2-1,.28-1.54L75.88,143l.9-2a7.52,7.52,0,0,1,1-4,2.2,2.2,0,0,1,1.93-.75l4.34,1.64A4,4,0,0,0,86.84,136c1-.8,2.17-.26,3.32.63A2.08,2.08,0,0,0,92,138a6.63,6.63,0,0,0,3.19-.69,3.29,3.29,0,0,1-.82-1,19.23,19.23,0,0,1-1.85-5.9,2.79,2.79,0,0,0-1.09-3c-1-.77-2.18-.49-3.28-.35a9.41,9.41,0,0,0-2.06.64c-1.66-1.08-3.46-.48-5.2-.09a20.77,20.77,0,0,0-4.43,1.74,3.72,3.72,0,0,1-2.69,1.07A10.33,10.33,0,0,1,70,130a4.72,4.72,0,0,0-3,1.21,4.09,4.09,0,0,0-.53.55,17.51,17.51,0,0,0-2,2.77A16.62,16.62,0,0,0,63,137.87c-1.42,2-2.28,4.1-.87,6.34a4.09,4.09,0,0,0,1.07,1l.16.1c-.19-.3.48-.82.73-.27A3.92,3.92,0,0,0,67,147.49a2.72,2.72,0,0,0,.49,0,6.82,6.82,0,0,0-.9-4.39,1.12,1.12,0,0,1,.49-1.61,3.17,3.17,0,0,1,1.31-.38c-.41,1.61-1.05,3.31.85,5.06a3.5,3.5,0,0,0,2,.78,7.64,7.64,0,0,0-.14-4.79Z" transform="translate(0 0)"/><path class="cls-3" d="M115.14,118.9l5.88.18a16.68,16.68,0,0,0-1.26-7.86c-.92-1.25-2.21-1.82-3.42-.44a2,2,0,0,0-.33.58,4.52,4.52,0,0,0-.16.57,20.57,20.57,0,0,0-.77,4.5c0,.41,0,.82,0,1.23s0,.83.07,1.24Z" transform="translate(0 0)"/><path class="cls-3" d="M80.88,85.51c-1.76-1.84-3.66-2.29-5.62-1.53a5.8,5.8,0,0,0-2.59,1.9,3.64,3.64,0,0,0-4.19,1.49,3.78,3.78,0,0,0-.37.72,5.26,5.26,0,0,0-.18.61,13,13,0,0,0-.43,3.2,17.16,17.16,0,0,0,2.7,9A10.81,10.81,0,0,0,75,104.66a12,12,0,0,0,2,.56,46.73,46.73,0,0,0-7.31.76c-1.1.2-2.19.45-2.87.62a7.32,7.32,0,0,0-2.07.73,7.12,7.12,0,0,0-3,3.22,11.9,11.9,0,0,0-.45,8.33c.56,2.32,1.09,4.63,1.58,7,.56-.21.74-.91,1-1.38a34.82,34.82,0,0,0,1-3.55,40.34,40.34,0,0,0,3.2,6.5c.47.37.9-.51,1-1a25.32,25.32,0,0,0-1.86-9.7,4.57,4.57,0,0,1,1.71-5.09,8.64,8.64,0,0,1,1.37-.95,26.34,26.34,0,0,1,10-2.73,18.67,18.67,0,0,0-4.28,8,10.42,10.42,0,0,0,2.35,8.42c2.86,2.93,6,2.43,9.12,1.38a6.66,6.66,0,0,0,3-2.48,6.74,6.74,0,0,0,.92-2.16,7,7,0,0,0,.15-1.07,17.51,17.51,0,0,0-.16-4.83c1-1.91,2.32-3.72,2.14-5.66,1.24.53,2.55,1.14,3.84-.39.64-.8.26-1.65.76-2.49a8.74,8.74,0,0,1,2.18-3.23,1.24,1.24,0,0,1,1.75.71c-.13,3.6.09,7-1.22,10.69L99.61,116a8.83,8.83,0,0,0-4.56,2.87c-2.5,3-2.27,6.15-2,9.3a21.77,21.77,0,0,0,.52,2.65,23.15,23.15,0,0,0,.79,2.33,8.1,8.1,0,0,0,1.31,2.28c1.47,1.82,2.42,2,3.67,2.12a4.52,4.52,0,0,0,.64,0l5-1.46a22,22,0,0,1-3.48,2.3,19.48,19.48,0,0,0-7.4,3.18,1.28,1.28,0,0,0-.36.54l-2,.18c-1.5-1.65-2.92-2.39-4.5-1.82a8,8,0,0,0-3.87,2.23,8.84,8.84,0,0,0-.73.87A9.24,9.24,0,0,0,80,143.2a6.24,6.24,0,0,0-3.3.81,5.76,5.76,0,0,0-2.19,2.6,8.76,8.76,0,0,0-.77,4,4.52,4.52,0,0,0-2.26,1.65c-1,1.55-.51,3.2-.15,4.82.17.49.76,1.35,1.34,1a7.51,7.51,0,0,0,1,3.85c.48.46,1.36-.32,1.53-.93A8.73,8.73,0,0,0,77,164.62a2.35,2.35,0,0,0,2.26.44,7.79,7.79,0,0,1-.25-3.22,11.08,11.08,0,0,1,.13-1.91l.14-.09a8.77,8.77,0,0,0,1.41-3.18,2.58,2.58,0,0,0,3.26-.83c.75-.86.07-1.8,1.17-2.71a7.25,7.25,0,0,1,4.49-1,3.71,3.71,0,0,0,4.82.19,6.83,6.83,0,0,1,3.75-2.19c1.38,1.51,2.81,2.39,4.28,2.34a2.44,2.44,0,0,0,1.25-.52,37.28,37.28,0,0,0,9.07-5.26,1.16,1.16,0,0,0,.39-1,.75.75,0,0,1,.23-.46,13,13,0,0,1,3.11-3.61c1.86-1.42,3.75-2.47,5.72-2.11.63.46.19,1.1,0,1.65a3.73,3.73,0,0,1-.68,1l-7,5.84,11.78.73a7.2,7.2,0,0,1,2-6c-1.41,2.28-.73,4.69,0,7.11a15.09,15.09,0,0,0,5.12,6.77,15.85,15.85,0,0,0,3.9,2.16c3.87,1.34,8.46,2,12.89.27a13.76,13.76,0,0,0,5.86-4.37A27.69,27.69,0,0,0,161.52,141a19.06,19.06,0,0,0-1.92-8,12.19,12.19,0,0,0-3.1-3.7c-3-2.32-6.24-3.18-9.49-2.44a19.86,19.86,0,0,0-2,.48c-.66.19-1.29.41-1.75.59a7.48,7.48,0,0,0-1.8.94,7.7,7.7,0,0,0-3.06,4.49c-.61,3.43.3,7,2.3,10.5.31.52.65,1,1,1.52.86.58,1.77.21,2.69-.18.06-.93,0-2.08,1.22-2.84a2.3,2.3,0,0,1,1.8-.26c.92,1.31,2,2.63.55,4.07a5.89,5.89,0,0,1-3.18.7,7.83,7.83,0,0,1-4.7-1.71c-2.53-2.09-2.81-4.33-3.17-6.57a23.83,23.83,0,0,1,.33-8.53,4.93,4.93,0,0,0-1.69-3.16c-1.8-1.22-3.76-.59-5.74.84l-.43.37h0c-.14.13-.26.26-.39.4a7.11,7.11,0,0,1,2.55-3.95c2.16-1.75,4.45-1.56,6.75-1.22a12.71,12.71,0,0,1,4,1.43,12.22,12.22,0,0,1-.7-2.8,8.43,8.43,0,0,1,.37-4.13,7.34,7.34,0,0,1,1.4-2.36,13.13,13.13,0,0,1,8-3.85c-2.31-2.35-2.78-4.85-.1-7.46,1.85-1.88,3.75-2.33,5.68-3.21.92-.37,1.86-.69,2.8-1a21.9,21.9,0,0,1-2.12-1.61q-4.56-4-5.18-8.34a11.61,11.61,0,0,1,.19-4.65,21,21,0,0,1,3-6.27,34,34,0,0,1,4.33-4.86c.91-.88,1.88-1.71,2.84-2.54a17.1,17.1,0,0,1-10.52.12,14,14,0,0,1-4.74-2.72,24.29,24.29,0,0,1-7-11.82,83.87,83.87,0,0,1-1.95,20.15,59.5,59.5,0,0,1-2.52,8,63.55,63.55,0,0,1-3.33,7.15,33.26,33.26,0,0,1-3.25,4.88,35.35,35.35,0,0,1-7.86,7.25,49.51,49.51,0,0,1,.7,14.88,11.72,11.72,0,0,1-2.11,5.55,4.26,4.26,0,0,1-1.45,1.1,7.19,7.19,0,0,0,1.28-5,1.73,1.73,0,0,0-.38-.66l-6.25.36-.89-1.46c.43-1.59.81-3.2,1.12-4.83s.57-3.26.75-4.67a28.65,28.65,0,0,0,.2-7.35,23.84,23.84,0,0,0-2.21-8.08,10.6,10.6,0,0,0-2.42-2.94,10.46,10.46,0,0,0-4.54-2.25A21.05,21.05,0,0,0,95,91.17a12.22,12.22,0,0,0-3.72-1.08,3.57,3.57,0,0,0-2.16.71c-2.32.07-4.79-1-7.29-4a12.54,12.54,0,0,1-.92-1.33Zm65.59,25.13c-2.41,1-4.89.14-7.34-.06-.53-.07-1.08-.15-1.61-.24-1.75-.29-3.08-.58-4.47-.89-1-.35-2.15-.09-3.16-1.23-.15-.38.49-.68.87-.87a3.54,3.54,0,0,1,2.1-.45c1.51.07,3.36.16,5.4.41l.84.1a57.14,57.14,0,0,1,6,1.18,3.48,3.48,0,0,1,1.71,1,.79.79,0,0,1-.36,1Zm4.35-11.91c.05.42-.28.73-.75,1.11a12.93,12.93,0,0,1-2.19,1c-.54.23-1.22.5-2,.76-1.39.46-2.47.72-3.58,1l-2.56.59c-1.31.25-2.61.79-4,.23-.72-.67.24-1.36,1.1-2.2.95-.35,1.5-.54,2.42-.86s1.92-.64,3.09-1l.77-.21A32.5,32.5,0,0,1,149.41,98c.46.12,1.19-.23,1.41.72Zm-23.63,4.83a5.2,5.2,0,0,1,.61-1.26,96.64,96.64,0,0,0,7-6.66c2.16-2.42,4.32-4.83,6.27-7.4h0c1.95-2.57,3.71-5.29,5.46-8,.79-.64,1.58-1.27,2.43-.89a2.43,2.43,0,0,1,.18,2.25,26,26,0,0,1-4.22,6.63l-1.24,1.52-1.47,1.76c-.63.75-1.48,1.75-2.36,2.73s-1.77,1.93-2.48,2.69l-1.82,1.89-1.51,1.55c-.78.77-1.23,1.21-1.83,1.75s-1.79,1.5-2.46,2a4.2,4.2,0,0,1-2.58,1.1c-.54-.46-.1-1.11,0-1.67Zm.25,6.79c.61-.42,1.28.12,1.91.26l.68.23a1.33,1.33,0,0,1-.62-.51,3.21,3.21,0,0,1,1.09.6,1.11,1.11,0,0,1-.44-.08l.7.58a64.44,64.44,0,0,1,6.11,5.55c.29.33.58.7.87,1.08.8,1.06,1.19,1.58.88,2.4-.51.42-1.06,0-1.6-.12a14.24,14.24,0,0,1-2.9-2c-.9-.68-1.8-1.38-2.69-2.12-1.1-.92-2-1.73-2.83-2.5l-1.51-1.41c-.15-.64-.55-1.33.35-2ZM91.73,95.11a1.37,1.37,0,0,1,1.83.63,1.25,1.25,0,0,1,.07,1.07,1.4,1.4,0,0,1-2.5.34,1.43,1.43,0,0,1,.6-2ZM79.91,97.25c-1-.92-1.1-1.94-1.65-2.93l-.41-1a3.73,3.73,0,0,0-4.11.64,1.84,1.84,0,0,0-.06,2.42,10.8,10.8,0,0,0,.83,1.28.94.94,0,0,1-.35,1.67,1.51,1.51,0,0,1-1.88-.73A17.43,17.43,0,0,1,70,91.54a30.26,30.26,0,0,1,4.12-1.72c.94-.3,2.24-.6,3.37-.84a2.89,2.89,0,0,1,2.3,1.44,13.78,13.78,0,0,1,2,7.25c-.46.87-1.2.14-1.84-.42Zm5,22.1c1.6-1.82,1.47-3.78,1.76-5.72.37-.42.66.39.81.72a21.74,21.74,0,0,1,.55,5.74c0,.83.19,1.72-1.14,2.57a9.18,9.18,0,0,1-4,.28c-1,.4-2,.24-3.08-.9a10.86,10.86,0,0,1-1.52-6.46c-.11-.68.91-1.81,1.69-1.61a13.31,13.31,0,0,0,.61,2.72,8.33,8.33,0,0,0,1.72,3.13,1.73,1.73,0,0,0,2.56-.47Z" transform="translate(0 0)"/><path class="cls-3" d="M124.87,38.8a19.93,19.93,0,0,1-7.67,1.58,51.41,51.41,0,0,1-11.68-2.25c.42.42,1,.9,1.38,1.27a20,20,0,0,1,3.37,3.93h0c.42,0,1,1.17,1.47,1.16,3.5,4.67,3.92,8.43,4.21,13.34a42.39,42.39,0,0,1-1,10.55c-.19,1-.38,2-.69,3.59s-.74,3.59-1.22,5.62-1,4.06-1.43,5.57-.7,2.52-1,3.53-.57,2-.87,3a13.61,13.61,0,0,1,4.11,3.63c2.57,3.48,3,7.2,2.66,10.88,0,.4-.1.79-.16,1.18.65-1.4,1-2.85,2.79-4.36a5.87,5.87,0,0,1,7.2-.38,8.69,8.69,0,0,1-.61-4.28,18.85,18.85,0,0,1,1.62-7.11,26.67,26.67,0,0,1,3.39-5.44,24.76,24.76,0,0,1,2.69-2.92,26.56,26.56,0,0,1,3.08-2.51,18.66,18.66,0,0,1-2.11-1.54c-5.22-4.39-6.12-9.47-4.82-14.09a21.53,21.53,0,0,1,4.07-7.72,7.87,7.87,0,0,1-7.18,1,5.89,5.89,0,0,1-3-3,12.69,12.69,0,0,1,.06-8.86c.13,0-.42,1.41-.29,1.43a53.63,53.63,0,0,1,2.29-6.71l-.73-.13Zm-6.68,25c-1-2.46-.44-5-.62-7.48a16.42,16.42,0,0,1,.11-2.47h0a13,13,0,0,1,.78-3.2.91.91,0,0,1,1.56.11,8.75,8.75,0,0,1,.68,4.54c0,.47,0,1.15,0,1.89,0,1.23.11,2.13.09,3a13.63,13.63,0,0,1-.34,3.12c-.18.41-.23,1.16-1.12,1.3a1.1,1.1,0,0,1-1.11-.83Zm13.66,14.23a1.25,1.25,0,0,1,.59.51,3.93,3.93,0,0,1-3,2.06,7.22,7.22,0,0,0-2.76.61A1.45,1.45,0,0,0,126.2,83a1.31,1.31,0,0,1-1.29.93c-.25,0-.52-.3-.78-.58-.85-1-.89-2.17.43-3.37a10.88,10.88,0,0,1,7.29-1.87ZM122.93,63.9h0a18.6,18.6,0,0,1,1.69-2.39.89.89,0,0,1,1.14.1c1.28,2.06.2,4.3-.45,6.43a46.63,46.63,0,0,1-3.42,6.86,7.18,7.18,0,0,1-2.25,2.24c-.49.21-1.34-.59-1.1-1.16-.12-2.91,1.71-5.87,2.75-8.77a23.63,23.63,0,0,1,1.64-3.31Z" transform="translate(0 0)"/><path class="cls-3" d="M93.85,165.74a15.06,15.06,0,0,1,2.64,7.6,32.4,32.4,0,0,1-.13,7.79,28,28,0,0,1,2.69-1.8,13.78,13.78,0,0,1,4.19-1.89,12.74,12.74,0,0,1,3.24-1c.45-.09,1.29-.25,2.19-.37,1.71-.25,3-.11,4.43-.37a.59.59,0,0,0,.46-.68,5.53,5.53,0,0,0-1.78-1.6c-.19-.11-.38-.23-.57-.33l-3.57-2.92c1.34-.63,2.68-1.29,4-2a30.67,30.67,0,0,0,5.6-3.66,16.4,16.4,0,0,0,2.74-2.88,8.71,8.71,0,0,0,1.32-7.56,5.93,5.93,0,0,0-1.83-2.57,9.56,9.56,0,0,0-3.1-1.57,11.71,11.71,0,0,0-7.47,1.73,9.92,9.92,0,0,0-2.59,2.76,9.12,9.12,0,0,0-.6,1.11,17.32,17.32,0,0,0-1.3,7A8.46,8.46,0,0,0,107,162a43.75,43.75,0,0,0,4.76-2.19c.17-.68.09-1.68,1.13-2.06a1.3,1.3,0,0,1,1.54.6c-.28.63-.61,1.6-1.48,1.9a1.91,1.91,0,0,1-.66.11l-1.32.8a33.12,33.12,0,0,1-2.94,1.54c-1.06.42-1.79,1-2.67,1a6.11,6.11,0,0,0-3.39,2.15,2.31,2.31,0,0,0-.38,1.12l-6.25-2.73c-.52-.37-1.07-1.06-1.6-.39a3.3,3.3,0,0,0,.11,1.91v.07Z" transform="translate(0 0)"/></svg>